HIERARCHY
ROOT Hips
{
     OFFSET 1.88212 96.90440 -13.34250
     CHANNELS 6 Xposition Yposition Zposition Zrotation Xrotation Yrotation
     JOINT Spine
     {
          OFFSET 0.00000 11.89050 0.00000
          CHANNELS 3 Zrotation Xrotation Yrotation
          JOINT Spine1
          {
               OFFSET -0.00000 25.65740 0.12766
               CHANNELS 3 Zrotation Xrotation Yrotation
               JOINT HEad
               {
                    OFFSET 0.00000 8.73416 0.01134
                    CHANNELS 3 Zrotation Xrotation Yrotation
                    End Site
                    {
                         OFFSET -0.29000 12.77420 2.51395
                    }
               }
               JOINT LeftShoulder1
               {
                    OFFSET 8.99000 -0.36225 -0.22000
                    CHANNELS 3 Zrotation Xrotation Yrotation
                    JOINT LeftArm
                    {
                         OFFSET 10.28270 -0.00338 0.32212
                         CHANNELS 3 Zrotation Xrotation Yrotation
                         JOINT LeftForeArm
                         {
                              OFFSET 32.76690 0.09914 -1.42434
                              CHANNELS 3 Zrotation Xrotation Yrotation
                              JOINT LeftHand
                              {
                                   OFFSET 27.56430 0.08536 1.02216
                                   CHANNELS 3 Zrotation Xrotation Yrotation
                                   End Site
                                   {
                                        OFFSET 16.74430 -0.60000 1.50291
                                   }
                              }
                         }
                    }
               }
               JOINT RightShoulder
               {
                    OFFSET -8.99000 -0.36225 -0.22000
                    CHANNELS 3 Zrotation Xrotation Yrotation
                    JOINT RightArm
                    {
                         OFFSET -10.28270 -0.00338 0.32212
                         CHANNELS 3 Zrotation Xrotation Yrotation
                         JOINT RightForeArm
                         {
                              OFFSET -32.89710 0.09914 -1.42434
                              CHANNELS 3 Zrotation Xrotation Yrotation
                              JOINT RightHand
                              {
                                   OFFSET -27.49210 0.08536 1.02216
                                   CHANNELS 3 Zrotation Xrotation Yrotation
                                   End Site
                                   {
                                        OFFSET -16.63120 -0.60000 1.50291
                                   }
                              }
                         }
                    }
               }
          }
     }
     JOINT LeftUpLeg
     {
          OFFSET 8.94580 -8.66707 0.10165
          CHANNELS 3 Zrotation Xrotation Yrotation
          JOINT LeftLeg
          {
               OFFSET 0.00000 -44.42270 1.37270
               CHANNELS 3 Zrotation Xrotation Yrotation
               JOINT LeftFoot
               {
                    OFFSET -0.25355 -42.09240 -1.46059
                    CHANNELS 3 Zrotation Xrotation Yrotation
                    JOINT LeftToes
                    {
                         OFFSET -0.04000 -4.41509 8.49910
                         CHANNELS 3 Zrotation Xrotation Yrotation
                         End Site
                         {
                              OFFSET 0.08000 -0.04745 9.77979
                         }
                    }
               }
          }
     }
     JOINT RightUpLeg
     {
          OFFSET -8.94580 -8.66707 0.10165
          CHANNELS 3 Zrotation Xrotation Yrotation
          JOINT RightLeg
          {
               OFFSET 0.00000 -44.42270 1.37270
               CHANNELS 3 Zrotation Xrotation Yrotation
               JOINT RightFoot
               {
                    OFFSET 0.25355 -42.09240 -1.46059
                    CHANNELS 3 Zrotation Xrotation Yrotation
                    JOINT RightToes
                    {
                         OFFSET 0.04000 -4.41509 8.49910
                         CHANNELS 3 Zrotation Xrotation Yrotation
                         End Site
                         {
                              OFFSET -0.08000 -0.13745 9.77979
                         }
                    }
               }
          }
     }
}
MOTION
Frames: 17
Frame Time: 0.01667
42.92825 91.95586 -120.97119 2.48542 1.01254 -21.05272 -15.26565 19.97681 10.67774 -0.01295 0.07916 0.02253 -5.95581 4.39149 1.88191 -3.35064 7.04797 5.22616 -116.49597 -50.74438 -107.28543 -50.92523 55.83632 -84.72858 7.55482 6.15967 -0.62423 16.22155 9.53515 9.55401 89.93071 -33.18597 78.07561 46.54126 58.78107 103.09560 -5.43688 6.82905 -2.24851 6.89279 -22.69026 -8.83933 -0.42600 24.50963 -4.02694 14.32241 -0.00507 0.00615 -30.38255 -14.65835 -0.12294 -6.44336 1.76270 -2.47719 -4.07835 40.67392 -4.74554 16.74441 -0.16238 0.10523 -4.34576 -13.50203 -3.30917 
42.68840 90.81164 -122.24364 2.73671 0.45172 -20.69659 -18.26767 25.12972 13.49052 -0.00875 0.07085 0.01541 -4.39126 -0.50254 -0.14378 -2.22872 3.87560 3.67639 -116.71635 -48.54451 -107.34730 -50.85326 56.49514 -84.31153 7.60359 6.49086 -0.26220 10.91706 16.12107 9.39066 101.45262 -32.18080 90.48161 55.05637 60.26535 93.90990 -5.88977 10.66739 1.31694 6.43503 -24.84069 -6.65545 1.24133 27.43788 -7.03623 16.44435 -0.00541 0.01193 -34.04695 -16.23183 -0.70693 -7.07217 -3.27579 -2.51854 -4.73635 48.29153 -1.82738 22.08002 -0.07295 0.14788 -10.62875 -25.03684 -10.83959 
42.46310 89.49505 -123.83018 3.11538 -0.14222 -20.23595 -21.80048 30.59812 16.79723 -0.00902 0.06608 0.01145 -2.92576 -5.80145 -2.08487 -1.25974 0.45103 2.12029 -116.74496 -46.41041 -107.30382 -50.81272 57.05297 -83.95310 7.46645 6.67765 0.30840 12.30923 11.15910 7.86027 96.65710 -33.29604 83.66446 53.17148 61.68300 97.94748 -6.37358 12.53792 2.91143 5.92077 -27.55985 -3.56289 3.85183 30.90361 -11.39695 18.52597 -0.00523 0.01588 -37.85398 -17.95945 -1.44456 -8.08922 -8.90813 -2.57238 -5.37964 55.60134 0.36789 18.51451 -0.00495 -0.05555 -7.07118 -21.34913 -8.26337 
42.25984 88.03848 -125.65854 3.61615 -0.71588 -19.68782 -25.48649 35.92597 20.43956 -0.00685 0.06628 0.00829 -0.82587 -10.44316 -2.65416 -1.72818 7.90566 2.74819 -122.99117 -37.24173 -118.01487 -58.02671 56.08162 -74.55993 7.29715 10.73595 -2.91250 13.32354 6.55367 6.53273 93.29089 -33.96537 79.25191 51.61920 62.48769 101.34293 -10.85131 -0.01263 -10.12590 5.44033 -30.79190 0.41556 7.56695 34.56753 -17.20658 20.65695 -0.00484 0.01838 -41.76342 -19.70789 -2.29960 -9.49452 -14.78167 -2.61551 -4.79704 63.48744 1.32228 14.47235 0.03258 -0.06444 -4.55928 -25.32761 -10.13907 
42.04622 86.46674 -127.59103 4.19455 -1.22071 -19.04572 -28.51571 40.05761 23.50443 0.00702 -0.02931 -0.02088 1.82870 -13.15549 -1.46076 -1.19157 4.87697 1.40814 -121.70107 -36.39815 -116.22922 -61.53673 55.50294 -70.07388 7.22844 12.91972 -4.17015 13.95881 3.63607 5.47794 90.91487 -34.45100 76.45975 50.43451 62.94437 103.98921 -9.14017 8.62345 -4.03778 5.11461 -34.41961 5.24970 12.51705 38.03584 -24.53798 22.91205 -0.00446 0.01996 -45.72796 -21.40197 -3.24067 -10.97180 -19.90981 -2.82226 -4.61404 69.64197 1.76470 14.56677 -0.02375 -0.01396 -6.17220 -24.92020 -9.96076 
41.78776 84.82300 -129.47794 4.79534 -1.61379 -18.31803 -30.69887 43.21627 25.80867 0.00507 -0.02548 -0.02043 3.96872 -14.95901 -0.06711 -0.66152 3.05392 0.58735 -116.62512 -36.77033 -109.63831 -56.62514 55.44498 -76.05585 5.41524 2.62275 12.17864 14.45218 1.95959 4.58375 89.15058 -34.78293 74.61719 57.47752 60.91829 96.04748 -7.65355 6.60499 -3.60157 4.92423 -37.71704 9.75294 17.70458 40.59766 -31.74974 25.30339 -0.00463 0.01929 -49.67479 -22.91825 -4.20382 -12.57694 -24.34438 -3.21062 -4.75015 73.43049 0.63524 2.63494 -0.22199 0.06577 4.63466 -24.58578 -9.25490 
41.47832 83.16085 -131.21098 5.37284 -1.86635 -17.53131 -31.93098 45.58681 27.25696 0.00208 -0.01627 -0.01829 5.66521 -15.90258 1.39079 -0.05858 2.27528 0.07596 -109.18528 -37.69944 -100.39014 -47.59372 54.38382 -87.82380 6.08964 9.11588 5.45177 14.86028 1.36587 3.82607 87.78275 -34.98972 73.32237 60.37352 59.98083 92.95741 -5.81175 13.08170 1.37674 4.83052 -40.68620 13.88288 22.79870 42.29136 -38.54716 27.79473 -0.00582 0.01700 -53.54082 -24.18855 -5.13834 -14.34212 -28.10692 -3.78791 -5.82075 74.98201 -0.49782 3.07701 -0.09541 -0.04642 -14.54766 -27.13089 -13.49068 
41.15802 81.51550 -132.73500 5.92186 -1.96408 -16.72270 -32.23683 47.29047 27.83412 -0.00211 -0.00831 -0.01757 6.99227 -16.12731 2.81830 0.22805 2.34563 -0.39894 -104.41693 -37.60170 -94.97411 -42.63123 52.63074 -94.15475 5.20996 6.24252 9.38467 17.87428 12.16851 7.31991 88.60919 -37.87475 80.88457 53.93610 60.74707 98.78079 -5.80990 10.75800 0.28501 4.76252 -43.36589 17.59925 27.52276 43.25146 -44.66854 30.34109 -0.00776 0.01390 -57.26660 -25.17634 -6.00674 -15.92455 -31.14017 -4.34695 -11.01588 77.44937 0.66733 4.65039 0.04712 -0.00003 -4.55549 -24.80888 -6.51044 
40.87624 79.89631 -134.02852 6.45606 -1.91362 -15.91982 -31.70450 48.43338 27.60642 -0.00329 0.00195 -0.01243 7.98293 -15.78895 4.12426 0.22438 3.07269 -0.50420 -101.51367 -37.20787 -91.84975 -43.48773 50.93935 -90.40755 5.94330 11.20524 0.31960 17.58850 11.75079 6.34642 86.32959 -36.31746 76.68873 49.79741 60.43955 102.81270 -5.07587 13.85707 2.17959 4.62831 -45.80734 20.84795 31.70785 43.66769 -49.94778 32.90734 -0.01007 0.01094 -60.80606 -25.87645 -6.78867 -17.07207 -33.53184 -4.68181 -21.48618 80.08463 5.76927 7.17057 0.11580 0.00431 -27.87022 -32.43341 -14.35327 
40.67508 78.29471 -135.08192 6.99943 -1.74391 -15.13443 -30.46674 49.10430 26.65545 -0.00498 0.00970 -0.00984 8.68064 -15.00732 5.28167 0.00692 4.29687 -0.46108 -99.87494 -36.93097 -90.04136 -44.09609 49.84631 -88.74282 5.58311 10.24716 0.28189 17.54831 11.98517 5.62629 84.57735 -35.29300 74.16210 47.18208 59.69743 105.29723 -5.12856 11.97649 1.08815 4.31956 -48.05180 23.55815 35.31775 43.74360 -54.34011 35.47516 -0.01218 0.00914 -64.13468 -26.31460 -7.48640 -18.64971 -35.14682 -4.43834 -32.71997 82.26934 11.61718 10.57149 0.17383 -0.00870 -20.20726 -33.79415 -7.48178 
40.52559 76.70720 -135.91171 7.54107 -1.48297 -14.37692 -28.65492 49.37358 25.09095 -0.00577 0.01567 -0.00832 9.12337 -13.88955 6.28658 -0.34835 5.86952 -0.39472 -99.08175 -36.88203 -88.88894 -44.48758 49.32396 -88.30316 6.10980 12.40035 -3.05292 17.68409 12.70409 4.96664 83.12208 -34.47202 72.59280 45.37356 58.88714 106.85857 -4.68367 13.52720 1.86630 3.84043 -50.12286 25.71573 38.41745 43.64583 -57.92862 38.01491 -0.01321 0.00899 -67.25813 -26.54228 -8.12438 -20.92604 -36.06241 -3.91610 -46.20324 80.59065 20.80711 0.14933 -0.48874 0.31930 -6.03180 -32.29385 -2.11749 
40.40641 75.16100 -136.56479 8.07505 -1.17014 -13.66498 -26.77211 50.48776 23.40259 0.01549 0.11515 -0.00091 9.07874 -13.81655 7.26379 -1.11850 6.39383 -0.42812 -98.78734 -37.03198 -87.95754 -44.68592 49.27392 -88.52082 5.91110 11.35211 -1.80835 17.56792 12.50230 4.54380 81.81874 -33.66079 71.53976 43.95319 58.12883 107.91199 -4.79544 12.23955 1.19166 3.21473 -52.03146 27.33703 41.12251 43.47880 -60.84343 40.49284 -0.01279 0.00989 -70.19735 -26.60448 -8.72611 -23.53547 -36.35887 -3.03306 -42.76720 80.60219 14.55269 -11.79121 -0.47636 0.09751 10.50085 -31.63689 2.49756 
40.28148 73.69990 -137.10817 8.58032 -0.84353 -13.02559 -24.75791 52.28801 21.42943 0.01349 0.11284 -0.00924 8.71080 -14.43708 8.33871 -2.19297 6.17782 -0.39607 -98.76224 -37.35973 -86.97980 -44.75102 49.60120 -89.18810 6.23044 12.19936 -3.07806 17.24406 11.69616 4.39195 80.56392 -32.82606 70.71956 42.67094 57.49247 108.80128 -4.52322 13.08816 1.49290 2.51633 -53.54012 27.40698 42.50795 43.84147 -61.90959 42.87194 -0.01166 0.01041 -72.98096 -26.50328 -9.28475 -26.67546 -35.98730 -2.08153 -40.59652 76.89507 11.98838 0.25736 0.12877 -0.35383 1.32271 -29.19416 4.71060 
40.08381 72.35462 -137.61328 9.03938 -0.51822 -12.49648 -22.35519 53.37594 18.99969 -0.01117 0.00883 -0.00790 8.34511 -14.42663 9.28332 -3.16417 6.52178 -0.36883 -98.90943 -37.88025 -85.86847 -44.70877 50.18133 -90.05983 6.18496 11.29820 -1.96604 17.09949 11.50591 4.15853 79.30910 -32.02765 69.99372 41.45327 56.93133 109.60915 -4.62496 12.32424 1.04762 1.88813 -54.88483 26.19626 43.09365 44.77182 -61.70351 44.85670 -0.00777 0.00809 -75.49612 -26.29520 -9.81158 -29.34693 -35.48456 -1.04548 -37.13751 72.55360 8.07529 -5.00875 -0.12801 0.22104 -3.46962 -38.64724 2.07091 
39.82574 71.18771 -138.12440 9.44849 -0.19331 -12.11787 -19.81088 53.80746 16.34929 -0.01146 0.00657 -0.00830 7.97629 -14.08974 10.16165 -4.05675 7.08325 -0.31988 -99.13545 -38.54558 -84.58332 -44.60291 50.92910 -91.04781 6.38178 11.58100 -2.57330 17.03363 11.60239 3.94397 78.02798 -31.27235 69.29366 40.26197 56.41687 110.39848 -4.41029 12.85410 1.10759 1.36505 -56.12387 23.88731 42.88792 46.23116 -60.31820 46.43717 -0.00506 0.00481 -77.69304 -25.95184 -10.26624 -31.10053 -35.22942 0.34783 -33.70505 70.35236 4.69920 2.21449 -0.05601 -0.15668 -2.58085 -29.31014 4.56196 
39.53222 70.22706 -138.65498 9.80974 0.13336 -11.91699 -17.33639 53.67239 13.68369 -0.01021 0.00993 -0.00726 7.62643 -13.44864 10.98140 -4.84887 7.82268 -0.26489 -99.39914 -39.32168 -83.15478 -44.45506 51.76493 -92.02750 6.36547 10.93809 -1.90629 17.00750 11.94230 3.77005 76.72577 -30.58983 68.60442 39.12481 55.89109 111.13983 -4.43470 12.45489 0.82766 0.93239 -57.22009 20.60409 41.74931 48.11133 -57.67067 47.63752 -0.00352 0.00164 -79.55868 -25.49475 -10.63330 -32.00457 -35.29253 2.04599 -30.67632 69.01051 0.98867 -2.23477 -0.10855 0.06244 -0.64290 -30.91368 3.40433 
39.20525 69.44984 -139.18384 10.14016 0.45059 -11.90061 -15.07758 53.07664 11.13501 -0.00863 0.01314 -0.00569 7.28260 -12.60342 11.76744 -5.56543 8.63530 -0.19509 -99.67690 -40.16824 -81.63087 -44.28399 52.64650 -92.95599 6.46928 11.04776 -2.35864 16.95177 12.42492 3.67422 75.41864 -30.00037 67.93667 38.07511 55.32160 111.81166 -4.20358 12.80298 0.85291 0.59404 -58.09477 16.47624 39.47976 50.27483 -53.61534 48.47860 -0.00246 -0.00071 -81.09273 -24.97046 -10.91522 -33.24022 -35.10739 2.91400 -27.96815 67.35272 -1.74926 4.80787 -0.09386 -0.11227 -5.52329 -28.08431 3.44441 
